<?xml version="1.0" standalone="no" ?>
<!DOCTYPE svg PUBLIC "-//W3C//DTD SVG 1.1//EN" "http://www.w3.org/Graphics/SVG/1.1/DTD/svg11.dtd">
<svg width="500px" height = "500px" xmlns="http://www.w3.org/2000/svg" version="1.1">
	<circle cx="120.203" cy="288.112" r="2" stroke="black" stroke-width="2"/>
	<circle cx="106.186" cy="204.026" r="2" stroke="black" stroke-width="2"/>
	<circle cx="196.455" cy="93.4693" r="2" stroke="black" stroke-width="2"/>
	<circle cx="317.568" cy="106.29" r="2" stroke="black" stroke-width="2"/>
	<circle cx="374.949" cy="270.879" r="2" stroke="black" stroke-width="2"/>
	<circle cx="362.361" cy="297.18" r="2" stroke="black" stroke-width="2"/>
	<circle cx="268.277" cy="361.267" r="2" stroke="black" stroke-width="2"/>
	<circle cx="195.091" cy="354.61" r="2" stroke="black" stroke-width="2"/>
	<line x1="120.203" y1="288.112" x2="106.186" y2="204.026" stroke="black" stroke-width="1"/>
	<line x1="106.186" y1="204.026" x2="196.455" y2="93.4693" stroke="black" stroke-width="1"/>
	<line x1="196.455" y1="93.4693" x2="317.568" y2="106.29" stroke="black" stroke-width="1"/>
	<line x1="317.568" y1="106.29" x2="374.949" y2="270.879" stroke="black" stroke-width="1"/>
	<line x1="374.949" y1="270.879" x2="362.361" y2="297.18" stroke="black" stroke-width="1"/>
	<line x1="362.361" y1="297.18" x2="268.277" y2="361.267" stroke="black" stroke-width="1"/>
	<line x1="268.277" y1="361.267" x2="195.091" y2="354.61" stroke="black" stroke-width="1"/>
	<line x1="195.091" y1="354.61" x2="120.203" y2="288.112" stroke="black" stroke-width="1"/>
	<line x1="120.203" y1="288.112" x2="140.948" y2="195.202" stroke="black" stroke-width="1"/>
	<line x1="106.186" y1="204.026" x2="140.948" y2="195.202" stroke="black" stroke-width="1"/>
	<line x1="196.455" y1="93.4693" x2="140.948" y2="195.202" stroke="black" stroke-width="1"/>
	<line x1="317.568" y1="106.29" x2="140.948" y2="195.202" stroke="black" stroke-width="1"/>
	<line x1="374.949" y1="270.879" x2="140.948" y2="195.202" stroke="black" stroke-width="1"/>
	<line x1="362.361" y1="297.18" x2="140.948" y2="195.202" stroke="black" stroke-width="1"/>
	<line x1="268.277" y1="361.267" x2="140.948" y2="195.202" stroke="black" stroke-width="1"/>
	<line x1="195.091" y1="354.61" x2="140.948" y2="195.202" stroke="black" stroke-width="1"/>
	<circle cx="281.648" cy="309.721" r="2" stroke="green" stroke-width="2" fill="green"/>
</svg>
