<?xml version="1.0" standalone="no" ?>
<!DOCTYPE svg PUBLIC "-//W3C//DTD SVG 1.1//EN" "http://www.w3.org/Graphics/SVG/1.1/DTD/svg11.dtd">
<svg width="500px" height = "500px" xmlns="http://www.w3.org/2000/svg" version="1.1">
	<circle cx="399.993" cy="170.258" r="2" stroke="black" stroke-width="2"/>
	<circle cx="298.954" cy="453.136" r="2" stroke="black" stroke-width="2"/>
	<circle cx="85.5581" cy="389.73" r="2" stroke="black" stroke-width="2"/>
	<circle cx="276.463" cy="83.5863" r="2" stroke="black" stroke-width="2"/>
	<circle cx="294.359" cy="88.2738" r="2" stroke="black" stroke-width="2"/>
	<line x1="399.993" y1="170.258" x2="298.954" y2="453.136" stroke="black" stroke-width="1"/>
	<line x1="298.954" y1="453.136" x2="85.5581" y2="389.73" stroke="black" stroke-width="1"/>
	<line x1="85.5581" y1="389.73" x2="276.463" y2="83.5863" stroke="black" stroke-width="1"/>
	<line x1="276.463" y1="83.5863" x2="294.359" y2="88.2738" stroke="black" stroke-width="1"/>
	<line x1="294.359" y1="88.2738" x2="399.993" y2="170.258" stroke="black" stroke-width="1"/>
	<circle cx="349.474" cy="311.697" r="2" stroke="blue" stroke-width="2" fill="blue"/>
	<circle cx="181.01" cy="236.658" r="2" stroke="blue" stroke-width="2" fill="blue"/>
	<circle cx="347.176" cy="129.266" r="2" stroke="blue" stroke-width="2" fill="blue"/>
	<circle cx="314.435" cy="238.699" r="2" stroke="green" stroke-width="2" fill="green"/>
	<circle cx="256.7" cy="182.392" r="2" stroke="green" stroke-width="2" fill="green"/>
	<circle cx="458.098" cy="476.115" r="2" stroke="red" stroke-width="2" fill="red"/>
	<circle cx="358.648" cy="317.856" r="2" stroke="red" stroke-width="2" fill="red"/>
	<circle cx="303.484" cy="70.8013" r="2" stroke="red" stroke-width="2" fill="red"/>
	<circle cx="121.443" cy="8.15029" r="2" stroke="red" stroke-width="2" fill="red"/>
	<circle cx="402.088" cy="68.6158" r="2" stroke="red" stroke-width="2" fill="red"/>
	<circle cx="200.472" cy="78.3395" r="2" stroke="red" stroke-width="2" fill="red"/>
	<circle cx="54.4044" cy="64.8952" r="2" stroke="red" stroke-width="2" fill="red"/>
	<circle cx="109.128" cy="499.462" r="2" stroke="red" stroke-width="2" fill="red"/>
	<circle cx="419.556" cy="256.466" r="2" stroke="red" stroke-width="2" fill="red"/>
	<circle cx="148.016" cy="306.32" r="2" stroke="green" stroke-width="2" fill="green"/>
	<circle cx="262.144" cy="318.776" r="2" stroke="green" stroke-width="2" fill="green"/>
	<circle cx="486.388" cy="246.791" r="2" stroke="red" stroke-width="2" fill="red"/>
	<circle cx="385.679" cy="146.258" r="2" stroke="red" stroke-width="2" fill="red"/>
	<circle cx="384.957" cy="263.372" r="2" stroke="red" stroke-width="2" fill="red"/>
	<circle cx="445.765" cy="200.114" r="2" stroke="red" stroke-width="2" fill="red"/>
	<circle cx="176.229" cy="141.657" r="2" stroke="red" stroke-width="2" fill="red"/>
	<circle cx="459.513" cy="403.862" r="2" stroke="red" stroke-width="2" fill="red"/>
	<circle cx="474.664" cy="34.8776" r="2" stroke="red" stroke-width="2" fill="red"/>
	<circle cx="43.0279" cy="262.998" r="2" stroke="red" stroke-width="2" fill="red"/>
	<circle cx="331.613" cy="96.1069" r="2" stroke="red" stroke-width="2" fill="red"/>
	<circle cx="174.446" cy="445.116" r="2" stroke="red" stroke-width="2" fill="red"/>
	<circle cx="10.0115" cy="32.0857" r="2" stroke="red" stroke-width="2" fill="red"/>
	<circle cx="31.5479" cy="228.851" r="2" stroke="red" stroke-width="2" fill="red"/>
	<circle cx="485.317" cy="119.14" r="2" stroke="red" stroke-width="2" fill="red"/>
	<circle cx="425.46" cy="451.104" r="2" stroke="red" stroke-width="2" fill="red"/>
	<circle cx="269.88" cy="133.333" r="2" stroke="green" stroke-width="2" fill="green"/>
	<circle cx="380.124" cy="187.603" r="2" stroke="green" stroke-width="2" fill="green"/>
	<circle cx="333.862" cy="256.268" r="2" stroke="green" stroke-width="2" fill="green"/>
	<circle cx="19.6402" cy="265.803" r="2" stroke="red" stroke-width="2" fill="red"/>
	<circle cx="465.918" cy="218.819" r="2" stroke="red" stroke-width="2" fill="red"/>
	<circle cx="360.476" cy="465.405" r="2" stroke="red" stroke-width="2" fill="red"/>
	<circle cx="369.267" cy="142.147" r="2" stroke="red" stroke-width="2" fill="red"/>
	<circle cx="177.024" cy="319.989" r="2" stroke="green" stroke-width="2" fill="green"/>
	<circle cx="82.9871" cy="343.931" r="2" stroke="red" stroke-width="2" fill="red"/>
	<circle cx="440.038" cy="220.052" r="2" stroke="red" stroke-width="2" fill="red"/>
	<circle cx="165.169" cy="414.601" r="2" stroke="red" stroke-width="2" fill="red"/>
	<circle cx="446.686" cy="114.484" r="2" stroke="red" stroke-width="2" fill="red"/>
	<circle cx="343.335" cy="175.18" r="2" stroke="green" stroke-width="2" fill="green"/>
	<circle cx="294.32" cy="478.234" r="2" stroke="red" stroke-width="2" fill="red"/>
	<circle cx="429.338" cy="328.652" r="2" stroke="red" stroke-width="2" fill="red"/>
	<circle cx="461.985" cy="219.78" r="2" stroke="red" stroke-width="2" fill="red"/>
	<circle cx="407.383" cy="199.218" r="2" stroke="red" stroke-width="2" fill="red"/>
	<circle cx="455.486" cy="342.109" r="2" stroke="red" stroke-width="2" fill="red"/>
	<circle cx="107.912" cy="241.245" r="2" stroke="red" stroke-width="2" fill="red"/>
	<circle cx="460.064" cy="475.126" r="2" stroke="red" stroke-width="2" fill="red"/>
	<circle cx="440.531" cy="73.83" r="2" stroke="red" stroke-width="2" fill="red"/>
	<circle cx="215.977" cy="320.54" r="2" stroke="green" stroke-width="2" fill="green"/>
	<circle cx="140.53" cy="309.798" r="2" stroke="green" stroke-width="2" fill="green"/>
	<circle cx="153.729" cy="393.001" r="2" stroke="green" stroke-width="2" fill="green"/>
	<circle cx="113.053" cy="223.517" r="2" stroke="red" stroke-width="2" fill="red"/>
	<circle cx="138.117" cy="93.7666" r="2" stroke="red" stroke-width="2" fill="red"/>
	<circle cx="208.251" cy="278.222" r="2" stroke="green" stroke-width="2" fill="green"/>
	<circle cx="453.402" cy="84.8035" r="2" stroke="red" stroke-width="2" fill="red"/>
	<circle cx="63.0377" cy="51.5856" r="2" stroke="red" stroke-width="2" fill="red"/>
	<circle cx="380.238" cy="247.722" r="2" stroke="red" stroke-width="2" fill="red"/>
	<circle cx="467.502" cy="492.376" r="2" stroke="red" stroke-width="2" fill="red"/>
	<circle cx="191.594" cy="342.223" r="2" stroke="green" stroke-width="2" fill="green"/>
	<circle cx="184.332" cy="374.885" r="2" stroke="green" stroke-width="2" fill="green"/>
	<circle cx="116.131" cy="147.08" r="2" stroke="red" stroke-width="2" fill="red"/>
	<circle cx="122.206" cy="292.244" r="2" stroke="red" stroke-width="2" fill="red"/>
	<circle cx="366.074" cy="76.1949" r="2" stroke="red" stroke-width="2" fill="red"/>
	<circle cx="396.735" cy="62.7375" r="2" stroke="red" stroke-width="2" fill="red"/>
	<circle cx="372.536" cy="82.051" r="2" stroke="red" stroke-width="2" fill="red"/>
	<circle cx="475.052" cy="37.2649" r="2" stroke="red" stroke-width="2" fill="red"/>
	<circle cx="260.782" cy="26.2646" r="2" stroke="red" stroke-width="2" fill="red"/>
	<circle cx="120.031" cy="88.1053" r="2" stroke="red" stroke-width="2" fill="red"/>
	<circle cx="366.327" cy="398.899" r="2" stroke="red" stroke-width="2" fill="red"/>
	<circle cx="483.703" cy="328.282" r="2" stroke="red" stroke-width="2" fill="red"/>
	<circle cx="379.867" cy="319.729" r="2" stroke="red" stroke-width="2" fill="red"/>
	<circle cx="67.4512" cy="46.7402" r="2" stroke="red" stroke-width="2" fill="red"/>
	<circle cx="39.1161" cy="260.105" r="2" stroke="red" stroke-width="2" fill="red"/>
	<circle cx="102.328" cy="34.9532" r="2" stroke="red" stroke-width="2" fill="red"/>
	<circle cx="409.839" cy="230.71" r="2" stroke="red" stroke-width="2" fill="red"/>
	<circle cx="377.79" cy="286.659" r="2" stroke="red" stroke-width="2" fill="red"/>
	<circle cx="78.9036" cy="25.9694" r="2" stroke="red" stroke-width="2" fill="red"/>
	<circle cx="102.164" cy="499.997" r="2" stroke="red" stroke-width="2" fill="red"/>
	<circle cx="62.7342" cy="444.978" r="2" stroke="red" stroke-width="2" fill="red"/>
	<circle cx="27.0288" cy="498.899" r="2" stroke="red" stroke-width="2" fill="red"/>
	<circle cx="36.1644" cy="435.27" r="2" stroke="red" stroke-width="2" fill="red"/>
	<circle cx="461.535" cy="2.0808" r="2" stroke="red" stroke-width="2" fill="red"/>
	<circle cx="90.1861" cy="296.946" r="2" stroke="red" stroke-width="2" fill="red"/>
	<circle cx="195.845" cy="81.5657" r="2" stroke="red" stroke-width="2" fill="red"/>
	<circle cx="409.848" cy="456.513" r="2" stroke="red" stroke-width="2" fill="red"/>
	<circle cx="276.243" cy="179.548" r="2" stroke="green" stroke-width="2" fill="green"/>
	<circle cx="226.288" cy="289.715" r="2" stroke="green" stroke-width="2" fill="green"/>
	<circle cx="49.82" cy="343.694" r="2" stroke="red" stroke-width="2" fill="red"/>
	<circle cx="378.647" cy="265.404" r="2" stroke="red" stroke-width="2" fill="red"/>
	<circle cx="496.114" cy="152.148" r="2" stroke="red" stroke-width="2" fill="red"/>
	<circle cx="438.807" cy="288.486" r="2" stroke="red" stroke-width="2" fill="red"/>
	<circle cx="314.455" cy="373.905" r="2" stroke="green" stroke-width="2" fill="green"/>
	<circle cx="373.901" cy="17.7105" r="2" stroke="red" stroke-width="2" fill="red"/>
	<circle cx="462.688" cy="416.619" r="2" stroke="red" stroke-width="2" fill="red"/>
	<circle cx="415.519" cy="436.636" r="2" stroke="red" stroke-width="2" fill="red"/>
	<circle cx="371.906" cy="489.717" r="2" stroke="red" stroke-width="2" fill="red"/>
	<circle cx="491.798" cy="451.683" r="2" stroke="red" stroke-width="2" fill="red"/>
	<circle cx="248.629" cy="333.44" r="2" stroke="green" stroke-width="2" fill="green"/>
	<circle cx="415.006" cy="81.984" r="2" stroke="red" stroke-width="2" fill="red"/>
	<circle cx="38.4973" cy="444.474" r="2" stroke="red" stroke-width="2" fill="red"/>
	<circle cx="124.022" cy="324.853" r="2" stroke="red" stroke-width="2" fill="red"/>
	<circle cx="114.568" cy="314.74" r="2" stroke="red" stroke-width="2" fill="red"/>
	<circle cx="158.434" cy="350.31" r="2" stroke="green" stroke-width="2" fill="green"/>
	<circle cx="115.714" cy="164.389" r="2" stroke="red" stroke-width="2" fill="red"/>
	<circle cx="316.536" cy="37.0805" r="2" stroke="red" stroke-width="2" fill="red"/>
	<circle cx="325.566" cy="111.828" r="2" stroke="red" stroke-width="2" fill="red"/>
	<circle cx="485.733" cy="255.343" r="2" stroke="red" stroke-width="2" fill="red"/>
	<circle cx="273.053" cy="140.021" r="2" stroke="green" stroke-width="2" fill="green"/>
	<circle cx="56.6403" cy="359.634" r="2" stroke="red" stroke-width="2" fill="red"/>
	<circle cx="296.27" cy="235.742" r="2" stroke="green" stroke-width="2" fill="green"/>
	<circle cx="225.459" cy="472.159" r="2" stroke="red" stroke-width="2" fill="red"/>
	<circle cx="423.842" cy="168.176" r="2" stroke="red" stroke-width="2" fill="red"/>
	<circle cx="1.61573" cy="217.257" r="2" stroke="red" stroke-width="2" fill="red"/>
	<circle cx="299.241" cy="172.471" r="2" stroke="green" stroke-width="2" fill="green"/>
	<circle cx="116.946" cy="416.622" r="2" stroke="red" stroke-width="2" fill="red"/>
	<circle cx="241.475" cy="337.738" r="2" stroke="green" stroke-width="2" fill="green"/>
	<circle cx="152.478" cy="240.968" r="2" stroke="red" stroke-width="2" fill="red"/>
	<circle cx="91.2779" cy="356.044" r="2" stroke="red" stroke-width="2" fill="red"/>
	<circle cx="20.4322" cy="310.911" r="2" stroke="red" stroke-width="2" fill="red"/>
	<circle cx="347.992" cy="206.992" r="2" stroke="green" stroke-width="2" fill="green"/>
	<circle cx="318.82" cy="336.968" r="2" stroke="green" stroke-width="2" fill="green"/>
</svg>
