<?xml version="1.0" standalone="no" ?>
<!DOCTYPE svg PUBLIC "-//W3C//DTD SVG 1.1//EN" "http://www.w3.org/Graphics/SVG/1.1/DTD/svg11.dtd">
<svg width="500px" height = "500px" xmlns="http://www.w3.org/2000/svg" version="1.1">
	<circle cx="331.61" cy="415.684" r="2" stroke="black" stroke-width="2"/>
	<circle cx="314.278" cy="422.119" r="2" stroke="black" stroke-width="2"/>
	<circle cx="185.658" cy="409.721" r="2" stroke="black" stroke-width="2"/>
	<circle cx="135.233" cy="156.3" r="2" stroke="black" stroke-width="2"/>
	<circle cx="148.057" cy="142.318" r="2" stroke="black" stroke-width="2"/>
	<circle cx="244.566" cy="96.1199" r="2" stroke="black" stroke-width="2"/>
	<circle cx="254.732" cy="95.1966" r="2" stroke="black" stroke-width="2"/>
	<circle cx="411.896" cy="182.47" r="2" stroke="black" stroke-width="2"/>
	<line x1="331.61" y1="415.684" x2="314.278" y2="422.119" stroke="black" stroke-width="1"/>
	<line x1="314.278" y1="422.119" x2="185.658" y2="409.721" stroke="black" stroke-width="1"/>
	<line x1="185.658" y1="409.721" x2="135.233" y2="156.3" stroke="black" stroke-width="1"/>
	<line x1="135.233" y1="156.3" x2="148.057" y2="142.318" stroke="black" stroke-width="1"/>
	<line x1="148.057" y1="142.318" x2="244.566" y2="96.1199" stroke="black" stroke-width="1"/>
	<line x1="244.566" y1="96.1199" x2="254.732" y2="95.1966" stroke="black" stroke-width="1"/>
	<line x1="254.732" y1="95.1966" x2="411.896" y2="182.47" stroke="black" stroke-width="1"/>
	<line x1="411.896" y1="182.47" x2="331.61" y2="415.684" stroke="black" stroke-width="1"/>
	<circle cx="322.944" cy="418.901" r="2" stroke="blue" stroke-width="2" fill="blue"/>
	<circle cx="160.446" cy="283.011" r="2" stroke="blue" stroke-width="2" fill="blue"/>
	<circle cx="196.312" cy="119.219" r="2" stroke="blue" stroke-width="2" fill="blue"/>
	<circle cx="333.314" cy="138.833" r="2" stroke="blue" stroke-width="2" fill="blue"/>
	<circle cx="130.248" cy="43.8218" r="2" stroke="red" stroke-width="2" fill="red"/>
	<circle cx="343.062" cy="438.692" r="2" stroke="red" stroke-width="2" fill="red"/>
	<circle cx="55.6378" cy="46.8701" r="2" stroke="red" stroke-width="2" fill="red"/>
	<circle cx="288.345" cy="180.8" r="2" stroke="green" stroke-width="2" fill="green"/>
	<circle cx="333.278" cy="296.606" r="2" stroke="green" stroke-width="2" fill="green"/>
	<circle cx="387.884" cy="144.389" r="2" stroke="red" stroke-width="2" fill="red"/>
	<circle cx="164.821" cy="144.19" r="2" stroke="green" stroke-width="2" fill="green"/>
	<circle cx="492.182" cy="94.8755" r="2" stroke="red" stroke-width="2" fill="red"/>
	<circle cx="413.696" cy="1.78929" r="2" stroke="red" stroke-width="2" fill="red"/>
	<circle cx="94.1005" cy="165.74" r="2" stroke="red" stroke-width="2" fill="red"/>
	<circle cx="479.318" cy="218.248" r="2" stroke="red" stroke-width="2" fill="red"/>
	<circle cx="382.436" cy="459.465" r="2" stroke="red" stroke-width="2" fill="red"/>
	<circle cx="60.5716" cy="349.538" r="2" stroke="red" stroke-width="2" fill="red"/>
	<circle cx="191.916" cy="342.893" r="2" stroke="green" stroke-width="2" fill="green"/>
	<circle cx="471.526" cy="387.137" r="2" stroke="red" stroke-width="2" fill="red"/>
	<circle cx="430.959" cy="458.136" r="2" stroke="red" stroke-width="2" fill="red"/>
	<circle cx="396.828" cy="101.774" r="2" stroke="red" stroke-width="2" fill="red"/>
	<circle cx="148.644" cy="274.021" r="2" stroke="red" stroke-width="2" fill="red"/>
	<circle cx="454.821" cy="452.466" r="2" stroke="red" stroke-width="2" fill="red"/>
	<circle cx="249.072" cy="436.989" r="2" stroke="red" stroke-width="2" fill="red"/>
	<circle cx="81.3784" cy="288.1" r="2" stroke="red" stroke-width="2" fill="red"/>
	<circle cx="432.289" cy="136.956" r="2" stroke="red" stroke-width="2" fill="red"/>
	<circle cx="231.831" cy="246.199" r="2" stroke="green" stroke-width="2" fill="green"/>
	<circle cx="247.989" cy="424.471" r="2" stroke="red" stroke-width="2" fill="red"/>
	<circle cx="90.2106" cy="145.527" r="2" stroke="red" stroke-width="2" fill="red"/>
	<circle cx="363.775" cy="342.089" r="2" stroke="red" stroke-width="2" fill="red"/>
	<circle cx="301.554" cy="69.5291" r="2" stroke="red" stroke-width="2" fill="red"/>
	<circle cx="419.067" cy="246.211" r="2" stroke="red" stroke-width="2" fill="red"/>
	<circle cx="89.1038" cy="362.126" r="2" stroke="red" stroke-width="2" fill="red"/>
	<circle cx="249.263" cy="110.983" r="2" stroke="green" stroke-width="2" fill="green"/>
	<circle cx="69.1192" cy="60.6294" r="2" stroke="red" stroke-width="2" fill="red"/>
	<circle cx="162.404" cy="180.221" r="2" stroke="green" stroke-width="2" fill="green"/>
	<circle cx="454.242" cy="465.948" r="2" stroke="red" stroke-width="2" fill="red"/>
	<circle cx="418.414" cy="311.048" r="2" stroke="red" stroke-width="2" fill="red"/>
	<circle cx="248.037" cy="409.064" r="2" stroke="green" stroke-width="2" fill="green"/>
	<circle cx="197.164" cy="167.486" r="2" stroke="green" stroke-width="2" fill="green"/>
	<circle cx="304.441" cy="329.416" r="2" stroke="green" stroke-width="2" fill="green"/>
	<circle cx="75.615" cy="129.453" r="2" stroke="red" stroke-width="2" fill="red"/>
	<circle cx="53.9241" cy="36.2725" r="2" stroke="red" stroke-width="2" fill="red"/>
	<circle cx="181.799" cy="323.604" r="2" stroke="green" stroke-width="2" fill="green"/>
	<circle cx="165.693" cy="144.135" r="2" stroke="green" stroke-width="2" fill="green"/>
	<circle cx="213.664" cy="45.5743" r="2" stroke="red" stroke-width="2" fill="red"/>
	<circle cx="291.785" cy="467.247" r="2" stroke="red" stroke-width="2" fill="red"/>
	<circle cx="329.373" cy="132.731" r="2" stroke="red" stroke-width="2" fill="red"/>
	<circle cx="243.713" cy="380.889" r="2" stroke="green" stroke-width="2" fill="green"/>
	<circle cx="441.518" cy="78.6361" r="2" stroke="red" stroke-width="2" fill="red"/>
	<circle cx="258.857" cy="312.833" r="2" stroke="green" stroke-width="2" fill="green"/>
	<circle cx="278.78" cy="103.922" r="2" stroke="red" stroke-width="2" fill="red"/>
	<circle cx="414.97" cy="213.1" r="2" stroke="red" stroke-width="2" fill="red"/>
	<circle cx="122.163" cy="197.194" r="2" stroke="red" stroke-width="2" fill="red"/>
	<circle cx="364.68" cy="163.007" r="2" stroke="green" stroke-width="2" fill="green"/>
	<circle cx="492.422" cy="319.327" r="2" stroke="red" stroke-width="2" fill="red"/>
	<circle cx="448.78" cy="169.121" r="2" stroke="red" stroke-width="2" fill="red"/>
	<circle cx="205.394" cy="68.0373" r="2" stroke="red" stroke-width="2" fill="red"/>
	<circle cx="391.641" cy="2.70427" r="2" stroke="red" stroke-width="2" fill="red"/>
	<circle cx="146.839" cy="387.193" r="2" stroke="red" stroke-width="2" fill="red"/>
	<circle cx="432.767" cy="57.3339" r="2" stroke="red" stroke-width="2" fill="red"/>
	<circle cx="24.5812" cy="360.503" r="2" stroke="red" stroke-width="2" fill="red"/>
	<circle cx="493.234" cy="224.553" r="2" stroke="red" stroke-width="2" fill="red"/>
	<circle cx="105.441" cy="353.955" r="2" stroke="red" stroke-width="2" fill="red"/>
	<circle cx="432.591" cy="236.947" r="2" stroke="red" stroke-width="2" fill="red"/>
	<circle cx="49.7796" cy="46.9598" r="2" stroke="red" stroke-width="2" fill="red"/>
	<circle cx="150.882" cy="191.448" r="2" stroke="green" stroke-width="2" fill="green"/>
	<circle cx="404.548" cy="328.56" r="2" stroke="red" stroke-width="2" fill="red"/>
	<circle cx="25.7541" cy="65.8511" r="2" stroke="red" stroke-width="2" fill="red"/>
	<circle cx="228.858" cy="26.7111" r="2" stroke="red" stroke-width="2" fill="red"/>
	<circle cx="346.038" cy="390.434" r="2" stroke="red" stroke-width="2" fill="red"/>
	<circle cx="59.5556" cy="221.28" r="2" stroke="red" stroke-width="2" fill="red"/>
	<circle cx="289.317" cy="294.818" r="2" stroke="green" stroke-width="2" fill="green"/>
	<circle cx="297.523" cy="264.95" r="2" stroke="green" stroke-width="2" fill="green"/>
	<circle cx="152.143" cy="180.958" r="2" stroke="green" stroke-width="2" fill="green"/>
	<circle cx="238.292" cy="444.362" r="2" stroke="red" stroke-width="2" fill="red"/>
	<circle cx="304.865" cy="84.9101" r="2" stroke="red" stroke-width="2" fill="red"/>
	<circle cx="309.463" cy="262.874" r="2" stroke="green" stroke-width="2" fill="green"/>
	<circle cx="116.828" cy="298.098" r="2" stroke="red" stroke-width="2" fill="red"/>
	<circle cx="35.0451" cy="414.904" r="2" stroke="red" stroke-width="2" fill="red"/>
	<circle cx="461.864" cy="49.4187" r="2" stroke="red" stroke-width="2" fill="red"/>
	<circle cx="240.867" cy="84.8248" r="2" stroke="red" stroke-width="2" fill="red"/>
	<circle cx="413.385" cy="112.745" r="2" stroke="red" stroke-width="2" fill="red"/>
	<circle cx="178.597" cy="145.414" r="2" stroke="green" stroke-width="2" fill="green"/>
	<circle cx="172.125" cy="439.139" r="2" stroke="red" stroke-width="2" fill="red"/>
	<circle cx="329.573" cy="407.454" r="2" stroke="green" stroke-width="2" fill="green"/>
	<circle cx="128.734" cy="18.1637" r="2" stroke="red" stroke-width="2" fill="red"/>
	<circle cx="312.982" cy="389.129" r="2" stroke="green" stroke-width="2" fill="green"/>
	<circle cx="154.078" cy="418.052" r="2" stroke="red" stroke-width="2" fill="red"/>
	<circle cx="99.0103" cy="110.505" r="2" stroke="red" stroke-width="2" fill="red"/>
	<circle cx="54.8663" cy="306.221" r="2" stroke="red" stroke-width="2" fill="red"/>
	<circle cx="391.131" cy="337.303" r="2" stroke="red" stroke-width="2" fill="red"/>
	<circle cx="100.176" cy="359.731" r="2" stroke="red" stroke-width="2" fill="red"/>
	<circle cx="157.829" cy="200.594" r="2" stroke="green" stroke-width="2" fill="green"/>
	<circle cx="115.498" cy="217.004" r="2" stroke="red" stroke-width="2" fill="red"/>
	<circle cx="266.423" cy="192.874" r="2" stroke="green" stroke-width="2" fill="green"/>
	<circle cx="277.699" cy="77.3619" r="2" stroke="red" stroke-width="2" fill="red"/>
	<circle cx="190.107" cy="7.28967" r="2" stroke="red" stroke-width="2" fill="red"/>
	<circle cx="152.704" cy="191.084" r="2" stroke="green" stroke-width="2" fill="green"/>
	<circle cx="130.222" cy="368.704" r="2" stroke="red" stroke-width="2" fill="red"/>
	<circle cx="276.158" cy="324.829" r="2" stroke="green" stroke-width="2" fill="green"/>
	<circle cx="342.993" cy="459.795" r="2" stroke="red" stroke-width="2" fill="red"/>
	<circle cx="348.924" cy="404.893" r="2" stroke="red" stroke-width="2" fill="red"/>
	<circle cx="322.945" cy="155.975" r="2" stroke="green" stroke-width="2" fill="green"/>
	<circle cx="266.48" cy="3.00239" r="2" stroke="red" stroke-width="2" fill="red"/>
	<circle cx="309.223" cy="421.955" r="2" stroke="red" stroke-width="2" fill="red"/>
	<circle cx="259.257" cy="321.346" r="2" stroke="green" stroke-width="2" fill="green"/>
	<circle cx="181.077" cy="200.355" r="2" stroke="green" stroke-width="2" fill="green"/>
	<circle cx="400.948" cy="359.434" r="2" stroke="red" stroke-width="2" fill="red"/>
	<circle cx="76.4379" cy="338.906" r="2" stroke="red" stroke-width="2" fill="red"/>
	<circle cx="31.7803" cy="16.4463" r="2" stroke="red" stroke-width="2" fill="red"/>
	<circle cx="93.8082" cy="342.861" r="2" stroke="red" stroke-width="2" fill="red"/>
	<circle cx="350.151" cy="309.479" r="2" stroke="green" stroke-width="2" fill="green"/>
	<circle cx="0.56274" cy="283.916" r="2" stroke="red" stroke-width="2" fill="red"/>
	<circle cx="152.619" cy="2.85457" r="2" stroke="red" stroke-width="2" fill="red"/>
	<circle cx="327.684" cy="130.785" r="2" stroke="red" stroke-width="2" fill="red"/>
	<circle cx="90.5806" cy="428.778" r="2" stroke="red" stroke-width="2" fill="red"/>
	<circle cx="333.67" cy="170.677" r="2" stroke="green" stroke-width="2" fill="green"/>
	<circle cx="326.652" cy="439.505" r="2" stroke="red" stroke-width="2" fill="red"/>
	<circle cx="442.507" cy="156.615" r="2" stroke="red" stroke-width="2" fill="red"/>
	<circle cx="78.5696" cy="93.1324" r="2" stroke="red" stroke-width="2" fill="red"/>
	<circle cx="414.479" cy="251.73" r="2" stroke="red" stroke-width="2" fill="red"/>
	<circle cx="452.085" cy="337.827" r="2" stroke="red" stroke-width="2" fill="red"/>
	<circle cx="197.261" cy="95.5558" r="2" stroke="red" stroke-width="2" fill="red"/>
	<circle cx="434.462" cy="353.033" r="2" stroke="red" stroke-width="2" fill="red"/>
	<circle cx="369.48" cy="273.699" r="2" stroke="green" stroke-width="2" fill="green"/>
	<circle cx="116.559" cy="466.242" r="2" stroke="red" stroke-width="2" fill="red"/>
	<circle cx="275.721" cy="463.288" r="2" stroke="red" stroke-width="2" fill="red"/>
	<circle cx="247.203" cy="466.71" r="2" stroke="red" stroke-width="2" fill="red"/>
	<circle cx="469.565" cy="276.284" r="2" stroke="red" stroke-width="2" fill="red"/>
	<circle cx="407.069" cy="399.823" r="2" stroke="red" stroke-width="2" fill="red"/>
	<circle cx="328.6" cy="297.249" r="2" stroke="green" stroke-width="2" fill="green"/>
	<circle cx="467.926" cy="497.65" r="2" stroke="red" stroke-width="2" fill="red"/>
	<circle cx="437.155" cy="162.271" r="2" stroke="red" stroke-width="2" fill="red"/>
	<circle cx="318.885" cy="294.578" r="2" stroke="green" stroke-width="2" fill="green"/>
	<circle cx="387.711" cy="379.662" r="2" stroke="red" stroke-width="2" fill="red"/>
</svg>
